# MagicaVoxel @ Ephtracy

# group
g eggItem-1

# material
mtllib eggItem-1.mtl
usemtl palette

# normals
vn -1 0 0
vn 1 0 0
vn 0 0 1
vn 0 0 -1
vn 0 -1 0
vn 0 1 0

# texcoords
vt 0.943359 0.5
vt 0.966797 0.5
vt 0.974609 0.5

# verts
v -5 8 2
v -5 8 -0
v -5 8 -3
v -5 8 -4
v -5 10 4
v -5 10 2
v -5 10 -0
v -5 10 -3
v -5 12 4
v -5 12 -4
v -4 8 5
v -4 8 4
v -4 8 -4
v -4 8 -5
v -4 10 4
v -4 12 5
v -4 12 4
v -4 12 3
v -4 12 -3
v -4 12 -4
v -4 12 -5
v -4 13 1
v -4 13 -1
v -4 14 3
v -4 14 1
v -4 14 -1
v -4 14 -3
v -3 12 4
v -3 12 3
v -3 12 -3
v -3 12 -4
v -3 14 4
v -3 14 3
v -3 14 2
v -3 14 1
v -3 14 -1
v -3 14 -2
v -3 14 -3
v -3 14 -4
v -3 15 2
v -3 15 1
v -3 15 -1
v -3 15 -2
v -2 14 3
v -2 14 2
v -2 14 -2
v -2 14 -3
v -2 15 3
v -2 15 2
v -2 15 1
v -2 15 -1
v -2 15 -2
v -2 15 -3
v -2 16 1
v -2 16 -1
v -1 15 2
v -1 15 1
v -1 15 -1
v -1 15 -2
v -1 16 2
v -1 16 1
v -1 16 -1
v -1 16 -2
v 2 8 5
v 2 8 4
v 2 8 -4
v 2 8 -5
v 2 10 5
v 2 10 4
v 2 10 -4
v 2 10 -5
v 4 8 2
v 4 8 -0
v 4 8 -3
v 4 8 -4
v 4 10 2
v 4 10 -0
v 4 10 -3
v 4 10 -4
v -4 8 2
v -4 8 -0
v -4 8 -3
v -4 8 -4
v -4 10 2
v -4 10 -0
v -4 10 -3
v -4 10 -4
v -2 8 5
v -2 8 4
v -2 8 -4
v -2 8 -5
v -2 10 5
v -2 10 4
v -2 10 -4
v -2 10 -5
v 1 15 2
v 1 15 1
v 1 15 -1
v 1 15 -2
v 1 16 2
v 1 16 1
v 1 16 -1
v 1 16 -2
v 2 14 3
v 2 14 2
v 2 14 -2
v 2 14 -3
v 2 15 3
v 2 15 2
v 2 15 1
v 2 15 -1
v 2 15 -2
v 2 15 -3
v 2 16 1
v 2 16 -1
v 3 12 4
v 3 12 3
v 3 12 -3
v 3 12 -4
v 3 14 4
v 3 14 3
v 3 14 2
v 3 14 -0
v 3 14 -2
v 3 14 -3
v 3 14 -4
v 3 15 2
v 3 15 -2
v 4 8 5
v 4 8 4
v 4 8 -4
v 4 8 -5
v 4 10 4
v 4 12 5
v 4 12 4
v 4 12 3
v 4 12 -0
v 4 12 -3
v 4 12 -4
v 4 12 -5
v 4 14 3
v 4 14 -0
v 4 14 -3
v 5 8 2
v 5 8 -0
v 5 8 -3
v 5 8 -4
v 5 10 4
v 5 10 2
v 5 10 -0
v 5 10 -3
v 5 12 4
v 5 12 -4
v -4 8 5
v -4 12 5
v -2 8 5
v -2 10 5
v -1 10 5
v -1 12 5
v 1 10 5
v 1 12 5
v 2 8 5
v 2 10 5
v 4 8 5
v 4 12 5
v -5 10 4
v -5 12 4
v -4 10 4
v -4 12 4
v -3 12 4
v -3 14 4
v -1 12 4
v 1 12 4
v 3 12 4
v 3 14 4
v 4 10 4
v 4 12 4
v 5 10 4
v 5 12 4
v -4 12 3
v -4 14 3
v -3 12 3
v -3 14 3
v -2 14 3
v -2 15 3
v 2 14 3
v 2 15 3
v 3 12 3
v 3 14 3
v 4 12 3
v 4 14 3
v -5 8 2
v -5 10 2
v -4 8 2
v -4 10 2
v -3 14 2
v -3 15 2
v -2 14 2
v -2 15 2
v -1 15 2
v -1 16 2
v 1 15 2
v 1 16 2
v 2 14 2
v 2 15 2
v 3 14 2
v 3 15 2
v 4 8 2
v 4 10 2
v 5 8 2
v 5 10 2
v -2 15 1
v -2 16 1
v -1 15 1
v -1 16 1
v 1 15 1
v 1 16 1
v 2 15 1
v 2 16 1
v -5 8 -3
v -5 10 -3
v -4 8 -3
v -4 10 -3
v 4 8 -3
v 4 10 -3
v 5 8 -3
v 5 10 -3
v -4 8 -4
v -4 10 -4
v -2 8 -4
v -2 10 -4
v 2 8 -4
v 2 10 -4
v 4 8 -4
v 4 10 -4
v -4 8 4
v -4 10 4
v -2 8 4
v -2 10 4
v 2 8 4
v 2 10 4
v 4 8 4
v 4 10 4
v -5 8 -0
v -5 10 -0
v -4 8 -0
v -4 10 -0
v 4 8 -0
v 4 10 -0
v 5 8 -0
v 5 10 -0
v -2 15 -1
v -2 16 -1
v -1 15 -1
v -1 16 -1
v 1 15 -1
v 1 16 -1
v 2 15 -1
v 2 16 -1
v -3 14 -2
v -3 15 -2
v -2 14 -2
v -2 15 -2
v -1 15 -2
v -1 16 -2
v 1 15 -2
v 1 16 -2
v 2 14 -2
v 2 15 -2
v 3 14 -2
v 3 15 -2
v -4 12 -3
v -4 14 -3
v -3 12 -3
v -3 14 -3
v -2 14 -3
v -2 15 -3
v 2 14 -3
v 2 15 -3
v 3 12 -3
v 3 14 -3
v 4 12 -3
v 4 14 -3
v -5 8 -4
v -5 12 -4
v -4 8 -4
v -4 12 -4
v -3 12 -4
v -3 14 -4
v -2 12 -4
v -1 12 -4
v -1 13 -4
v 0 12 -4
v 0 13 -4
v 1 12 -4
v 3 12 -4
v 3 14 -4
v 4 8 -4
v 4 12 -4
v 5 8 -4
v 5 12 -4
v -4 8 -5
v -4 12 -5
v -2 8 -5
v -2 10 -5
v -2 12 -5
v 1 10 -5
v 1 12 -5
v 2 8 -5
v 2 10 -5
v 4 8 -5
v 4 12 -5
v -4 8 5
v -2 8 5
v 2 8 5
v 4 8 5
v -4 8 4
v -2 8 4
v 2 8 4
v 4 8 4
v -5 8 2
v -4 8 2
v 4 8 2
v 5 8 2
v -5 8 -0
v -4 8 -0
v 4 8 -0
v 5 8 -0
v -5 8 -3
v -4 8 -3
v 4 8 -3
v 5 8 -3
v -5 8 -4
v -4 8 -4
v -2 8 -4
v 2 8 -4
v 4 8 -4
v 5 8 -4
v -4 8 -5
v -2 8 -5
v 2 8 -5
v 4 8 -5
v -2 10 5
v -1 10 5
v 1 10 5
v 2 10 5
v -5 10 4
v -4 10 4
v -2 10 4
v -1 10 4
v 1 10 4
v 2 10 4
v 4 10 4
v 5 10 4
v -5 10 2
v -4 10 2
v 4 10 2
v 5 10 2
v -5 10 -0
v -4 10 -0
v 4 10 -0
v 5 10 -0
v -5 10 -3
v -4 10 -3
v 4 10 -3
v 5 10 -3
v -4 10 -4
v -2 10 -4
v 1 10 -4
v 2 10 -4
v 4 10 -4
v -2 10 -5
v 1 10 -5
v 2 10 -5
v -4 12 5
v -1 12 5
v 1 12 5
v 4 12 5
v -5 12 4
v -4 12 4
v -3 12 4
v -1 12 4
v 1 12 4
v 3 12 4
v 4 12 4
v 5 12 4
v -4 12 3
v -3 12 3
v 3 12 3
v 4 12 3
v 4 12 -0
v -4 12 -3
v -3 12 -3
v 3 12 -3
v 4 12 -3
v -5 12 -4
v -4 12 -4
v -3 12 -4
v -2 12 -4
v -1 12 -4
v 0 12 -4
v 1 12 -4
v 3 12 -4
v 4 12 -4
v 5 12 -4
v -4 12 -5
v -2 12 -5
v 1 12 -5
v 4 12 -5
v -3 14 4
v 3 14 4
v -4 14 3
v -3 14 3
v -2 14 3
v 2 14 3
v 3 14 3
v 4 14 3
v -3 14 2
v -2 14 2
v 2 14 2
v 3 14 2
v -4 14 1
v -3 14 1
v 3 14 -0
v 4 14 -0
v -4 14 -1
v -3 14 -1
v -3 14 -2
v -2 14 -2
v 2 14 -2
v 3 14 -2
v -4 14 -3
v -3 14 -3
v -2 14 -3
v 2 14 -3
v 3 14 -3
v 4 14 -3
v -3 14 -4
v 3 14 -4
v -2 15 3
v 2 15 3
v -3 15 2
v -2 15 2
v -1 15 2
v 1 15 2
v 2 15 2
v 3 15 2
v -3 15 1
v -2 15 1
v -1 15 1
v 1 15 1
v 2 15 1
v -3 15 -1
v -2 15 -1
v -1 15 -1
v 1 15 -1
v 2 15 -1
v -3 15 -2
v -2 15 -2
v -1 15 -2
v 1 15 -2
v 2 15 -2
v 3 15 -2
v -2 15 -3
v 2 15 -3
v -1 16 2
v 1 16 2
v -2 16 1
v -1 16 1
v 0 16 1
v 1 16 1
v 2 16 1
v -2 16 -1
v -1 16 -1
v 0 16 -1
v 1 16 -1
v 2 16 -1
v -1 16 -2
v 1 16 -2

# faces
f 6/1/1 2/1/1 1/1/1
f 7/1/1 2/1/1 6/1/1
f 8/3/1 4/3/1 3/3/1
f 9/3/1 7/3/1 6/3/1
f 9/3/1 8/3/1 7/3/1
f 9/3/1 6/3/1 5/3/1
f 10/3/1 4/3/1 8/3/1
f 10/3/1 8/3/1 9/3/1
f 15/3/1 12/3/1 11/3/1
f 16/3/1 15/3/1 11/3/1
f 17/3/1 15/3/1 16/3/1
f 20/3/1 14/3/1 13/3/1
f 21/3/1 14/3/1 20/3/1
f 22/3/1 19/3/1 18/3/1
f 23/3/1 19/3/1 22/3/1
f 24/3/1 22/3/1 18/3/1
f 25/1/1 23/1/1 22/1/1
f 25/3/1 22/3/1 24/3/1
f 26/3/1 19/3/1 23/3/1
f 26/1/1 23/1/1 25/1/1
f 27/3/1 19/3/1 26/3/1
f 32/3/1 29/3/1 28/3/1
f 33/3/1 29/3/1 32/3/1
f 38/3/1 31/3/1 30/3/1
f 39/3/1 31/3/1 38/3/1
f 40/3/1 35/3/1 34/3/1
f 41/1/1 36/1/1 35/1/1
f 41/3/1 35/3/1 40/3/1
f 42/3/1 37/3/1 36/3/1
f 42/1/1 36/1/1 41/1/1
f 43/3/1 37/3/1 42/3/1
f 48/3/1 45/3/1 44/3/1
f 49/3/1 45/3/1 48/3/1
f 52/3/1 47/3/1 46/3/1
f 53/3/1 47/3/1 52/3/1
f 54/3/1 51/3/1 50/3/1
f 55/3/1 51/3/1 54/3/1
f 60/3/1 57/3/1 56/3/1
f 61/3/1 57/3/1 60/3/1
f 62/3/1 59/3/1 58/3/1
f 63/3/1 59/3/1 62/3/1
f 68/3/1 65/3/1 64/3/1
f 69/3/1 65/3/1 68/3/1
f 70/3/1 67/3/1 66/3/1
f 71/3/1 67/3/1 70/3/1
f 76/3/1 73/3/1 72/3/1
f 77/3/1 73/3/1 76/3/1
f 78/3/1 75/3/1 74/3/1
f 79/3/1 75/3/1 78/3/1
f 80/1/2 81/1/2 84/1/2
f 84/1/2 81/1/2 85/1/2
f 82/3/2 83/3/2 86/3/2
f 86/3/2 83/3/2 87/3/2
f 88/3/2 89/3/2 92/3/2
f 92/3/2 89/3/2 93/3/2
f 90/3/2 91/3/2 94/3/2
f 94/3/2 91/3/2 95/3/2
f 96/3/2 97/3/2 100/3/2
f 100/3/2 97/3/2 101/3/2
f 98/3/2 99/3/2 102/3/2
f 102/3/2 99/3/2 103/3/2
f 104/3/2 105/3/2 108/3/2
f 108/3/2 105/3/2 109/3/2
f 106/3/2 107/3/2 112/3/2
f 112/3/2 107/3/2 113/3/2
f 110/1/2 111/1/2 114/1/2
f 114/1/2 111/1/2 115/1/2
f 116/3/2 117/3/2 120/3/2
f 120/3/2 117/3/2 121/3/2
f 118/3/2 119/3/2 125/3/2
f 125/3/2 119/3/2 126/3/2
f 123/3/2 124/3/2 127/3/2
f 122/3/2 123/3/2 127/3/2
f 127/3/2 124/3/2 128/3/2
f 129/3/2 130/3/2 133/3/2
f 129/3/2 133/3/2 134/3/2
f 134/3/2 133/3/2 135/3/2
f 131/3/2 132/3/2 139/3/2
f 139/3/2 132/3/2 140/3/2
f 136/1/2 137/1/2 141/1/2
f 137/3/2 138/3/2 142/3/2
f 141/1/2 137/1/2 142/1/2
f 142/3/2 138/3/2 143/3/2
f 144/3/2 145/3/2 149/3/2
f 149/3/2 145/3/2 150/3/2
f 146/3/2 147/3/2 151/3/2
f 149/3/2 150/3/2 152/3/2
f 150/3/2 151/3/2 152/3/2
f 148/3/2 149/3/2 152/3/2
f 151/3/2 147/3/2 153/3/2
f 152/3/2 151/3/2 153/3/2
f 156/3/3 155/3/3 154/3/3
f 157/3/3 155/3/3 156/3/3
f 158/3/3 155/3/3 157/3/3
f 159/3/3 155/3/3 158/3/3
f 160/1/3 159/1/3 158/1/3
f 161/1/3 159/1/3 160/1/3
f 163/3/3 161/3/3 160/3/3
f 164/3/3 163/3/3 162/3/3
f 165/3/3 161/3/3 163/3/3
f 165/3/3 163/3/3 164/3/3
f 168/3/3 167/3/3 166/3/3
f 169/3/3 167/3/3 168/3/3
f 172/3/3 171/3/3 170/3/3
f 173/3/3 171/3/3 172/3/3
f 174/3/3 171/3/3 173/3/3
f 175/3/3 171/3/3 174/3/3
f 178/3/3 177/3/3 176/3/3
f 179/3/3 177/3/3 178/3/3
f 182/3/3 181/3/3 180/3/3
f 183/3/3 181/3/3 182/3/3
f 186/3/3 185/3/3 184/3/3
f 187/3/3 185/3/3 186/3/3
f 190/1/3 189/1/3 188/1/3
f 191/1/3 189/1/3 190/1/3
f 194/1/3 193/1/3 192/1/3
f 195/1/3 193/1/3 194/1/3
f 198/3/3 197/3/3 196/3/3
f 199/3/3 197/3/3 198/3/3
f 202/3/3 201/3/3 200/3/3
f 203/3/3 201/3/3 202/3/3
f 206/3/3 205/3/3 204/3/3
f 207/3/3 205/3/3 206/3/3
f 210/3/3 209/3/3 208/3/3
f 211/3/3 209/3/3 210/3/3
f 214/3/3 213/3/3 212/3/3
f 215/3/3 213/3/3 214/3/3
f 218/1/3 217/1/3 216/1/3
f 219/1/3 217/1/3 218/1/3
f 222/3/3 221/3/3 220/3/3
f 223/3/3 221/3/3 222/3/3
f 226/3/3 225/3/3 224/3/3
f 227/3/3 225/3/3 226/3/3
f 230/3/3 229/3/3 228/3/3
f 231/3/3 229/3/3 230/3/3
f 234/3/3 233/3/3 232/3/3
f 235/3/3 233/3/3 234/3/3
f 236/3/4 237/3/4 238/3/4
f 238/3/4 237/3/4 239/3/4
f 240/3/4 241/3/4 242/3/4
f 242/3/4 241/3/4 243/3/4
f 244/1/4 245/1/4 246/1/4
f 246/1/4 245/1/4 247/1/4
f 248/3/4 249/3/4 250/3/4
f 250/3/4 249/3/4 251/3/4
f 252/3/4 253/3/4 254/3/4
f 254/3/4 253/3/4 255/3/4
f 256/1/4 257/1/4 258/1/4
f 258/1/4 257/1/4 259/1/4
f 260/3/4 261/3/4 262/3/4
f 262/3/4 261/3/4 263/3/4
f 264/3/4 265/3/4 266/3/4
f 266/3/4 265/3/4 267/3/4
f 268/3/4 269/3/4 270/3/4
f 270/3/4 269/3/4 271/3/4
f 272/3/4 273/3/4 274/3/4
f 274/3/4 273/3/4 275/3/4
f 276/3/4 277/3/4 278/3/4
f 278/3/4 277/3/4 279/3/4
f 280/3/4 281/3/4 282/3/4
f 282/3/4 281/3/4 283/3/4
f 284/3/4 285/3/4 286/3/4
f 286/3/4 285/3/4 287/3/4
f 288/3/4 289/3/4 290/3/4
f 290/3/4 289/3/4 291/3/4
f 291/3/4 289/3/4 292/3/4
f 291/1/4 292/1/4 293/1/4
f 292/3/4 289/3/4 294/3/4
f 293/1/4 292/1/4 294/1/4
f 293/3/4 294/3/4 295/3/4
f 295/3/4 294/3/4 296/3/4
f 294/3/4 289/3/4 297/3/4
f 296/3/4 294/3/4 297/3/4
f 298/3/4 299/3/4 300/3/4
f 300/3/4 299/3/4 301/3/4
f 302/3/4 303/3/4 304/3/4
f 304/3/4 303/3/4 305/3/4
f 305/3/4 303/3/4 306/3/4
f 305/1/4 306/1/4 307/1/4
f 307/1/4 306/1/4 308/1/4
f 307/3/4 308/3/4 310/3/4
f 309/3/4 310/3/4 311/3/4
f 310/3/4 308/3/4 312/3/4
f 311/3/4 310/3/4 312/3/4
f 317/3/5 314/3/5 313/3/5
f 318/3/5 314/3/5 317/3/5
f 319/3/5 316/3/5 315/3/5
f 320/3/5 316/3/5 319/3/5
f 325/1/5 322/1/5 321/1/5
f 326/1/5 322/1/5 325/1/5
f 327/3/5 324/3/5 323/3/5
f 328/3/5 324/3/5 327/3/5
f 333/3/5 330/3/5 329/3/5
f 334/3/5 330/3/5 333/3/5
f 337/3/5 332/3/5 331/3/5
f 338/3/5 332/3/5 337/3/5
f 339/3/5 335/3/5 334/3/5
f 340/3/5 335/3/5 339/3/5
f 341/3/5 337/3/5 336/3/5
f 342/3/5 337/3/5 341/3/5
f 349/3/5 344/3/5 343/3/5
f 350/1/5 345/1/5 344/1/5
f 350/3/5 344/3/5 349/3/5
f 351/3/5 346/3/5 345/3/5
f 351/1/5 345/1/5 350/1/5
f 352/3/5 346/3/5 351/3/5
f 355/3/5 348/3/5 347/3/5
f 356/2/5 349/2/5 348/2/5
f 356/3/5 348/3/5 355/3/5
f 356/2/5 350/2/5 349/2/5
f 356/2/5 353/2/5 352/2/5
f 356/2/5 352/2/5 351/2/5
f 356/2/5 351/2/5 350/2/5
f 357/3/5 354/3/5 353/3/5
f 357/2/5 353/2/5 356/2/5
f 358/3/5 354/3/5 357/3/5
f 360/2/5 357/2/5 356/2/5
f 361/2/5 357/2/5 360/2/5
f 363/3/5 360/3/5 359/3/5
f 364/2/5 361/2/5 360/2/5
f 364/3/5 360/3/5 363/3/5
f 365/3/5 362/3/5 361/3/5
f 365/2/5 361/2/5 364/2/5
f 366/3/5 362/3/5 365/3/5
f 367/2/5 365/2/5 364/2/5
f 368/2/5 365/2/5 367/2/5
f 369/2/5 365/2/5 368/2/5
f 370/2/5 365/2/5 369/2/5
f 371/2/5 365/2/5 370/2/5
f 372/1/5 369/1/5 368/1/5
f 373/3/5 370/3/5 369/3/5
f 373/1/5 369/1/5 372/1/5
f 374/3/5 370/3/5 373/3/5
f 375/3/6 376/3/6 380/3/6
f 380/3/6 376/3/6 381/3/6
f 376/1/6 377/1/6 382/1/6
f 381/3/6 376/3/6 382/3/6
f 377/3/6 378/3/6 383/3/6
f 382/1/6 377/1/6 383/1/6
f 383/3/6 378/3/6 384/3/6
f 384/3/6 378/3/6 385/3/6
f 380/3/6 381/3/6 387/3/6
f 379/3/6 380/3/6 387/3/6
f 387/3/6 381/3/6 388/3/6
f 385/3/6 386/3/6 389/3/6
f 384/3/6 385/3/6 389/3/6
f 389/3/6 386/3/6 390/3/6
f 390/3/6 386/3/6 391/3/6
f 379/3/6 387/3/6 392/3/6
f 391/3/6 386/3/6 395/3/6
f 392/3/6 393/3/6 396/3/6
f 379/3/6 392/3/6 396/3/6
f 396/3/6 393/3/6 397/3/6
f 397/3/6 393/3/6 398/3/6
f 394/3/6 395/3/6 403/3/6
f 395/3/6 386/3/6 404/3/6
f 403/3/6 395/3/6 404/3/6
f 404/3/6 386/3/6 405/3/6
f 397/3/6 398/3/6 406/3/6
f 398/3/6 399/3/6 406/3/6
f 401/1/6 402/1/6 407/1/6
f 406/3/6 399/3/6 407/3/6
f 399/1/6 400/1/6 407/1/6
f 400/1/6 401/1/6 407/1/6
f 402/3/6 403/3/6 408/3/6
f 407/1/6 402/1/6 408/1/6
f 403/3/6 404/3/6 408/3/6
f 408/3/6 404/3/6 409/3/6
f 410/3/6 411/3/6 413/3/6
f 413/3/6 411/3/6 414/3/6
f 414/3/6 411/3/6 415/3/6
f 415/3/6 411/3/6 416/3/6
f 412/3/6 413/3/6 418/3/6
f 413/3/6 414/3/6 418/3/6
f 418/3/6 414/3/6 419/3/6
f 415/3/6 416/3/6 420/3/6
f 416/1/6 417/1/6 421/1/6
f 420/3/6 416/3/6 421/3/6
f 412/3/6 418/3/6 422/3/6
f 422/3/6 418/3/6 423/3/6
f 421/1/6 417/1/6 424/1/6
f 424/1/6 417/1/6 425/1/6
f 422/1/6 423/1/6 426/1/6
f 426/1/6 423/1/6 427/1/6
f 426/3/6 427/3/6 428/3/6
f 424/3/6 425/3/6 431/3/6
f 428/3/6 429/3/6 432/3/6
f 426/3/6 428/3/6 432/3/6
f 432/3/6 429/3/6 433/3/6
f 433/3/6 429/3/6 434/3/6
f 430/3/6 431/3/6 435/3/6
f 431/3/6 425/3/6 436/3/6
f 435/3/6 431/3/6 436/3/6
f 436/3/6 425/3/6 437/3/6
f 433/3/6 434/3/6 438/3/6
f 434/3/6 435/3/6 438/3/6
f 435/3/6 436/3/6 438/3/6
f 438/3/6 436/3/6 439/3/6
f 440/3/6 441/3/6 443/3/6
f 443/3/6 441/3/6 444/3/6
f 444/3/6 441/3/6 445/3/6
f 445/3/6 441/3/6 446/3/6
f 442/3/6 443/3/6 448/3/6
f 443/3/6 444/3/6 448/3/6
f 448/3/6 444/3/6 449/3/6
f 449/3/6 444/3/6 450/3/6
f 446/3/6 447/3/6 451/3/6
f 445/3/6 446/3/6 451/3/6
f 451/3/6 447/3/6 452/3/6
f 448/1/6 449/1/6 453/1/6
f 453/1/6 449/1/6 454/1/6
f 452/3/6 447/3/6 457/3/6
f 454/3/6 455/3/6 458/3/6
f 453/3/6 454/3/6 458/3/6
f 458/3/6 455/3/6 459/3/6
f 459/3/6 455/3/6 460/3/6
f 456/3/6 457/3/6 461/3/6
f 457/3/6 447/3/6 462/3/6
f 461/3/6 457/3/6 462/3/6
f 462/3/6 447/3/6 463/3/6
f 459/3/6 460/3/6 464/3/6
f 460/3/6 461/3/6 464/3/6
f 461/3/6 462/3/6 464/3/6
f 464/3/6 462/3/6 465/3/6
f 466/3/6 467/3/6 469/3/6
f 469/3/6 467/3/6 470/3/6
f 470/3/6 467/3/6 471/3/6
f 468/3/6 469/3/6 473/3/6
f 469/3/6 470/3/6 473/3/6
f 473/3/6 470/3/6 474/3/6
f 471/1/6 472/1/6 475/1/6
f 474/3/6 470/3/6 475/3/6
f 470/1/6 471/1/6 475/1/6
f 475/1/6 472/1/6 476/1/6
f 476/1/6 472/1/6 477/1/6
f 474/3/6 475/3/6 478/3/6
f 475/3/6 476/3/6 478/3/6
f 478/3/6 476/3/6 479/3/6
